# xmcd
# 
# Track frame offsets:
#     150
#     15847
#     28992
#     43072
#     55492
#     71640
#     87267
#     101037
#     116567
#     129117
#     144305
#     155887
#     166834
#     178830
#     195347
#     207715
#     221492
#     238677
# 
# Disc length: 3372
# 
# Revision: 1
# Processed by: cddbd v1.5.2PL0 Copyright (c) Steve Scherf et al.
# Submitted via: BonkEnc v1.0
# 
DISCID=030d2a12
DTITLE=Delley e Dorivan - Os Maiores Violeiros do Brasil
DYEAR=0
DGENRE=
TTITLE0=Em clima de rodeio
TTITLE1=Aconteceu comigo
TTITLE2=O Brasil tem solução
TTITLE3=Tô Doidão
TTITLE4=Sem você não sei viver
TTITLE5=Rei dos Reis
TTITLE6=Quatro Horas
TTITLE7=Mundo de paz
TTITLE8=Tomando mé
TTITLE9=Radialista apaixonado
TTITLE10=Sistema bruto
TTITLE11=Paixão secreta
TTITLE12=Pagode de gago
TTITLE13=Noite de amor
TTITLE14=Silicone
TTITLE15=Mulher tem que ter defeito
TTITLE16=Negrinho cantadô
TTITLE17=Aconteceu comigo - versão 2
EXTD=
EXTT0=
EXTT1=
EXTT2=
EXTT3=
EXTT4=
EXTT5=
EXTT6=
EXTT7=
EXTT8=
EXTT9=
EXTT10=
EXTT11=
EXTT12=
EXTT13=
EXTT14=
EXTT15=
EXTT16=
EXTT17=
PLAYORDER=
